<svg xmlns:rdf="http://www.w3.org/1999/02/22-rdf-syntax-ns#" xmlns="http://www.w3.org/2000/svg" sodipodi:docname="convergent.svg"
                            height="800" width="135" version="1.1" xmlns:cc="http://creativecommons.org/ns#" xmlns:dc="http://purl.org/dc/elements/1.1/"
                            viewBox="0 0 135 800.00001" xmlns:sodipodi="http://sodipodi.sourceforge.net/DTD/sodipodi-0.dtd">
                            <g inkscape:label="Layer 1" inkscape:groupmode="layer" transform="translate(0 -252.36)">
                                <g font-size="40px" font-family="sans-serif" fill="#000000">
                                    <text style="word-spacing:0px;letter-spacing:0px" line-height="125%" xml:space="preserve" y="921.98676" x="-67.57679" sodipodi:linespacing="125%">
                                        <tspan sodipodi:role="line" x="-67.57679" y="921.98676" />
                                    </text>
                                    <text style="word-spacing:0px;letter-spacing:0px" line-height="125%" xml:space="preserve" y="998.43726" x="-53.242321" sodipodi:linespacing="125%">
                                        <tspan sodipodi:role="line" x="-53.242321" y="998.43726" />
                                    </text>
                                    <text style="word-spacing:0px;letter-spacing:0px" line-height="125%" xml:space="preserve" y="934.27344" x="-49.146759" sodipodi:linespacing="125%">
                                        <tspan sodipodi:role="line" x="-49.146759" y="934.27344" />
                                    </text>
                                </g>
                                <g fill="#2E0927">
                                    <rect rx="1.5026" ry="1.0026" height="763.14" width="60.068" y="276.6" x="74.993" />
                                    <g stroke="#04756F" stroke-linecap="square" stroke-width="2.5">
                                        <path id="line0" d="m133.81 277.85h-92.833" />
                                        <path id="line1" d="m133.81 344.76h-92.833" />
                                        <path id="line2" d="m133.81 411.67h-92.833" />
                                        <path id="line3" d="m133.81 478.57h-92.833" />
                                        <path id="line4" d="m133.81 545.48h-92.833" />
                                        <path id="line5" d="m133.81 612.39h-92.833" />
                                        <path id="line6" d="m133.81 679.3h-92.833" />
                                        <path id="line7" d="m133.81 746.21h-92.833" />
                                        <path id="line8" d="m133.81 813.12h-92.833" />
                                        <path id="line9" d="m133.81 880.03h-92.833" />
                                    </g>
                                </g>
                                <g fill="#04756F">
                                    <path id="number-zero" d="m20.104 267.64q-2.5902 0-3.9019 2.557-1.2951 2.5404-1.2951 7.6543 0 5.0973 1.2951 7.6543 1.3117 2.5404 3.9019 2.5404 2.6068 0 3.9019-2.5404 1.3117-2.557 1.3117-7.6543 0-5.114-1.3117-7.6543-1.2951-2.557-3.9019-2.557zm0-2.6566q4.1675 0 6.3592 3.3041 2.2083 3.2875 2.2083 9.5638 0 6.2596-2.2083 9.5638-2.1917 3.2875-6.3592 3.2875t-6.3758-3.2875q-2.1917-3.3042-2.1917-9.5638 0-6.2762 2.1917-9.5638 2.2083-3.3041 6.3758-3.3041z"
                                    />
                                    <path id="number-one" d="m13.205 354.33h5.4792v-18.912l-5.9607 1.1955v-3.0551l5.9275-1.1955h3.354v21.967h5.4792v2.8226h-14.279v-2.8226z"
                                    />
                                    <path id="number-two" d="m16.269 421.46h11.706v2.8226h-15.74v-2.8226q1.9094-1.9758 5.197-5.2966 3.3041-3.3374 4.1509-4.3004 1.6106-1.8098 2.2415-3.0551 0.64755-1.2619 0.64755-2.474 0-1.9758-1.3947-3.2211-1.3781-1.2453-3.603-1.2453-1.5774 0-3.3373 0.54792-1.7434 0.54791-3.7358 1.6604v-3.3872q2.0257-0.81358 3.7856-1.2287 1.76-0.4151 3.2211-0.4151 3.8521 0 6.1434 1.926t2.2913 5.1472q0 1.5275-0.58113 2.9056-0.56453 1.3615-2.0755 3.2211-0.41509 0.48149-2.64 2.7894-2.2249 2.2913-6.2762 6.4256z"
                                    />
                                    <path id="number-three" d="m23.151 477.59q2.4075 0.51471 3.7524 2.1419 1.3615 1.6272 1.3615 4.0181 0 3.6694-2.5238 5.6785-2.5238 2.009-7.1728 2.009-1.5608 0-3.2211-0.31547-1.6438-0.29886-3.4038-0.9132v-3.2377q1.3947 0.81358 3.0551 1.2287 1.6604 0.41509 3.4702 0.41509 3.1547 0 4.7985-1.2453 1.6604-1.2453 1.6604-3.6196 0-2.1917-1.5441-3.4204-1.5275-1.2453-4.2672-1.2453h-2.889v-2.7562h3.0219q2.474 0 3.7856-0.97962 1.3117-0.99622 1.3117-2.8558 0-1.9094-1.3615-2.9223-1.3449-1.0294-3.8687-1.0294-1.3781 0-2.9555 0.29887-1.5774 0.29888-3.4702 0.92981v-2.9887q1.9094-0.53132 3.5698-0.79698 1.677-0.26566 3.1547-0.26566 3.8189 0 6.0438 1.7434 2.2249 1.7268 2.2249 4.6822 0 2.0589-1.1789 3.4868-1.1789 1.4113-3.354 1.9592z"
                                    />
                                    <path id="number-four" d="m22.263 536.01-8.4679 13.233h8.4679v-13.233zm-0.88-2.9223h4.2173v16.155h3.5366v2.7894h-3.5366v5.8445h-3.3374v-5.8445h-11.191v-3.2377l10.311-15.707z"
                                    />
                                    <path id="number-five" d="m13.131 599.76h13.167v2.8226h-10.095v6.077q0.73056-0.24906 1.4611-0.36528 0.73056-0.13283 1.4611-0.13283 4.1509 0 6.5751 2.2747 2.4241 2.2747 2.4241 6.16 0 4.0015-2.4906 6.2264-2.4906 2.2083-7.0234 2.2083-1.5608 0-3.1879-0.26566-1.6106-0.26566-3.3373-0.79698v-3.3706q1.4943 0.81359 3.0883 1.2121 1.594 0.39849 3.3706 0.39849 2.8724 0 4.5494-1.5109t1.677-4.1011-1.677-4.1011-4.5494-1.5109q-1.3449 0-2.6898 0.29886-1.3283 0.29887-2.723 0.92981v-12.453z"
                                    />
                                    <path id="number-six" d="m20.395 677.95q-2.2581 0-3.5864 1.5441-1.3117 1.5441-1.3117 4.234 0 2.6732 1.3117 4.234 1.3283 1.5442 3.5864 1.5442t3.5698-1.5442q1.3283-1.5608 1.3283-4.234 0-2.6898-1.3283-4.234-1.3117-1.5441-3.5698-1.5441zm6.6581-10.51v3.0551q-1.2619-0.59774-2.557-0.91321-1.2785-0.31547-2.5404-0.31547-3.3207 0-5.0807 2.2415-1.7434 2.2415-1.9924 6.7743 0.97962-1.4445 2.4574-2.2083 1.4777-0.78038 3.2543-0.78038 3.7358 0 5.8943 2.2747 2.1751 2.2581 2.1751 6.16 0 3.8189-2.2581 6.1268t-6.0105 2.3079q-4.3004 0-6.5751-3.2875-2.2747-3.3041-2.2747-9.5637 0-5.8777 2.7894-9.3645 2.7894-3.5034 7.4883-3.5034 1.2619 0 2.5404 0.24905 1.2951 0.24906 2.6898 0.74717z"
                                    />
                                    <path id="number-seven" d="m12.134 733.82h15.94v1.4279l-8.9992 23.361h-3.5034l8.4679-21.967h-11.905v-2.8226z" />
                                    <path id="number-eight" d="m20.104 813.73q-2.3909 0-3.769 1.2785-1.3615 1.2785-1.3615 3.52t1.3615 3.52q1.3781 1.2785 3.769 1.2785t3.769-1.2785q1.3781-1.2951 1.3781-3.52 0-2.2415-1.3781-3.52-1.3615-1.2785-3.769-1.2785zm-3.354-1.4279q-2.1585-0.53133-3.3706-2.0091-1.1955-1.4777-1.1955-3.603 0-2.9721 2.1087-4.6989 2.1253-1.7268 5.8113-1.7268 3.7026 0 5.8113 1.7268t2.1087 4.6989q0 2.1253-1.2121 3.603-1.1955 1.4777-3.3373 2.0091 2.4241 0.56452 3.769 2.2083 1.3615 1.6438 1.3615 4.0181 0 3.603-2.2083 5.529-2.1917 1.926-6.2928 1.926t-6.3094-1.926q-2.1917-1.926-2.1917-5.529 0-2.3743 1.3615-4.0181t3.7856-2.2083zm-1.2287-5.2966q0 1.926 1.1955 3.0053 1.2121 1.0792 3.3872 1.0792 2.1585 0 3.3706-1.0792 1.2287-1.0792 1.2287-3.0053 0-1.926-1.2287-3.0053-1.2121-1.0792-3.3706-1.0792-2.1751 0-3.3872 1.0792-1.1955 1.0792-1.1955 3.0053z"
                                    />
                                    <path id="number-nine" d="m13.147 891.89v-3.0551q1.2619 0.59773 2.557 0.9132t2.5404 0.31547q3.3207 0 5.0641-2.2249 1.76-2.2415 2.009-6.7909-0.96302 1.4279-2.4407 2.1917-1.4777 0.76377-3.2709 0.76377-3.7192 0-5.8943-2.2415-2.1585-2.2581-2.1585-6.16 0-3.8189 2.2581-6.1268t6.0105-2.3079q4.3004 0 6.5585 3.3041 2.2747 3.2875 2.2747 9.5637 0 5.8611-2.7894 9.3645-2.7728 3.4868-7.4717 3.4868-1.2619 0-2.557-0.24906-1.2951-0.24905-2.6898-0.74717zm6.675-10.51q2.2581 0 3.5698-1.5442 1.3283-1.5442 1.3283-4.234 0-2.6732-1.3283-4.2174-1.3117-1.5608-3.5698-1.5608t-3.5864 1.5608q-1.3117 1.5442-1.3117 4.2174 0 2.6898 1.3117 4.234 1.3283 1.5442 3.5864 1.5442z"
                                    />
                                </g>
                                <path id="infinite" stroke-linejoin="round" d="m47.234 988.14c-1.2347-28.13-35.751 28.2-36.532 1.0541-0.78112-27.146 37.767 27.076 36.532-1.0541z"
                                    sodipodi:nodetypes="zzz" stroke="#04756F" stroke-linecap="round" stroke-width="3.7519" fill="none"
                                />
                            </g>
                        </svg>
