<?xml version="1.0" encoding="UTF-8" standalone="no"?>
<svg xmlns:inkscape="http://www.inkscape.org/namespaces/inkscape" xmlns:rdf="http://www.w3.org/1999/02/22-rdf-syntax-ns#" xmlns="http://www.w3.org/2000/svg" inkscape:version="0.91 r13725" height="800" width="150" version="1.1" xmlns:cc="http://creativecommons.org/ns#" xmlns:dc="http://purl.org/dc/elements/1.1/" sodipodi:docname="divergent.svg" viewBox="0 0 150 800.00001" xmlns:sodipodi="http://sodipodi.sourceforge.net/DTD/sodipodi-0.dtd">
 <sodipodi:namedview bordercolor="#666666" inkscape:pageshadow="2" inkscape:window-y="18" pagecolor="#2e2e2e" inkscape:zoom="0.36625" inkscape:window-maximized="1" inkscape:window-x="0" showgrid="false" borderopacity="1.0" inkscape:current-layer="g4250" inkscape:cx="216.29308" inkscape:cy="627.11179" inkscape:object-nodes="true" inkscape:snap-smooth-nodes="true" units="px" inkscape:window-height="750" inkscape:pageopacity="0" inkscape:window-width="1366" inkscape:document-units="px"/>
 <g inkscape:label="Layer 1" transform="translate(0,-252.36)" inkscape:groupmode="layer">
  <text style="word-spacing:0px;letter-spacing:0px" xml:space="preserve" font-size="40px" sodipodi:linespacing="125%" y="751.1781" x="-143.83469" font-family="sans-serif" line-height="125%" fill="#000000"><tspan sodipodi:role="line" x="-143.83469" y="751.1781"/></text>
  <rect rx="1.5026" ry="1.0026" height="680" width="60.068" y="277.71" x="87.078" fill="#2e0927"/>
  <g fill="#04756f">
   <path d="m32.189 267.64q-2.5902 0-3.9019 2.557-1.2951 2.5404-1.2951 7.6543 0 5.0973 1.2951 7.6543 1.3117 2.5404 3.9019 2.5404 2.6068 0 3.9019-2.5404 1.3117-2.557 1.3117-7.6543 0-5.114-1.3117-7.6543-1.2951-2.557-3.9019-2.557zm0-2.6566q4.1675 0 6.3592 3.3041 2.2083 3.2875 2.2083 9.5638 0 6.2596-2.2083 9.5638-2.1917 3.2875-6.3592 3.2875t-6.3758-3.2875q-2.1917-3.3042-2.1917-9.5638 0-6.2762 2.1917-9.5638 2.2083-3.3041 6.3758-3.3041z" inkscape:connector-curvature="0"/>
   <path d="m25.29 966.05h5.4792v-18.912l-5.9607 1.1955v-3.0551l5.9275-1.1955h3.354v21.967h5.4792v2.8226h-14.279v-2.8226z" inkscape:connector-curvature="0"/>
   <path d="m16.145 343.33l-4.534 0.91v2.34l4.559-0.92v14.46h-4.19v2.16h10.918v-2.16h-4.189v-16.79h-2.564zm19.322 5.79l-10.156 32.87h3.32l10.156-32.87h-3.32zm10.748 17.86c-0.745 0-1.566 0.11-2.463 0.32s-1.862 0.53-2.895 0.94v2.59c1.016-0.57 1.967-0.99 2.856-1.27 0.897-0.28 1.749-0.42 2.553-0.42 1.134 0 2.051 0.32 2.754 0.95 0.71 0.64 1.066 1.46 1.066 2.47 0 0.61-0.164 1.25-0.494 1.89-0.322 0.63-0.894 1.41-1.715 2.34-0.432 0.49-1.49 1.58-3.174 3.28-1.676 1.69-2.999 3.05-3.973 4.05v2.16h12.036v-2.16h-8.952c2.066-2.1 3.665-3.74 4.799-4.91 1.134-1.18 1.808-1.89 2.02-2.13 0.77-0.95 1.298-1.77 1.586-2.47 0.296-0.7 0.445-1.44 0.445-2.22 0-1.64-0.584-2.95-1.752-3.93s-2.734-1.48-4.697-1.48z" style="baseline-shift:super" transform="translate(0,252.36)"/>
   <path d="m15.572 173.67l-4.531 0.91v2.34l4.557-0.91v14.45h-4.19v2.16h10.918v-2.16h-4.189v-16.79h-2.565zm19.323 5.79l-10.157 32.87h3.321l10.156-32.87h-3.32zm12.513 18.21l-7.885 12.01v2.47h8.557v4.47h2.553v-4.47h2.703v-2.13h-2.703v-12.35h-3.225zm0.672 2.23v10.12h-6.475l6.475-10.12z" style="baseline-shift:super" transform="translate(0,252.36)"/>
   <path d="m7.3848 46.242l-4.5332 0.914v2.336l4.5586-0.914v14.459h-4.1895v2.158h10.918v-2.158h-4.1898v-16.795h-2.5644zm19.322 5.793l-10.156 32.871h3.32l10.156-32.871h-3.32zm29.588 17.863c-2.395 0-4.305 0.894-5.727 2.68-1.422 1.777-2.132 4.164-2.132 7.16 0 3.191 0.58 5.629 1.74 7.313 1.159 1.676 2.835 2.513 5.027 2.513 1.913 0 3.445-0.589 4.596-1.765 1.151-1.177 1.726-2.737 1.726-4.684 0-1.989-0.555-3.56-1.664-4.711-1.1-1.159-2.601-1.738-4.506-1.738-0.905 0-1.735 0.198-2.488 0.596-0.753 0.389-1.379 0.953-1.879 1.689 0.127-2.31 0.635-4.037 1.524-5.18 0.897-1.142 2.192-1.714 3.884-1.714 0.644 0 1.29 0.081 1.942 0.242 0.66 0.161 1.312 0.392 1.955 0.697v-2.336c-0.711-0.254-1.397-0.443-2.057-0.57-0.651-0.127-1.298-0.192-1.941-0.192zm-18.84 0.344l-4.533 0.914v2.336l4.558-0.914v14.459h-4.189v2.158h10.918v-2.158h-4.189v-16.795h-2.565zm17.748 8.455c1.151 0 2.06 0.393 2.729 1.18 0.677 0.787 1.015 1.867 1.015 3.238 0 1.363-0.338 2.441-1.015 3.237-0.669 0.787-1.578 1.181-2.729 1.181s-2.065-0.394-2.742-1.181c-0.669-0.796-1.004-1.874-1.004-3.237 0-1.371 0.335-2.451 1.004-3.238 0.677-0.787 1.591-1.18 2.742-1.18z" style="baseline-shift:super" transform="translate(0,252.36)"/>
   <path d="m15.732 88.656l-4.533 0.914v2.336l4.559-0.914v14.458h-4.19v2.16h10.918v-2.16h-4.189v-16.794h-2.565zm19.323 5.795l-10.157 32.869h3.321l10.156-32.869h-3.32zm11.623 17.859c-1.879 0-3.36 0.44-4.444 1.32-1.074 0.88-1.611 2.08-1.611 3.6 0 1.08 0.305 2 0.914 2.75 0.618 0.76 1.476 1.27 2.576 1.54-1.235 0.29-2.2 0.85-2.894 1.69-0.694 0.83-1.041 1.86-1.041 3.07 0 1.84 0.558 3.24 1.676 4.23 1.125 0.98 2.733 1.47 4.824 1.47 2.09 0 3.695-0.49 4.812-1.47 1.126-0.99 1.688-2.39 1.688-4.23 0-1.21-0.347-2.24-1.041-3.07-0.686-0.84-1.645-1.4-2.881-1.69 1.092-0.27 1.941-0.78 2.551-1.54 0.617-0.75 0.927-1.67 0.927-2.75 0-1.52-0.538-2.72-1.613-3.6s-2.556-1.32-4.443-1.32zm0 2.04c1.1 0 1.96 0.27 2.578 0.82 0.626 0.55 0.939 1.32 0.939 2.3s-0.313 1.75-0.939 2.3c-0.618 0.55-1.478 0.82-2.578 0.82-1.109 0-1.972-0.27-2.59-0.82-0.609-0.55-0.914-1.32-0.914-2.3s0.305-1.75 0.914-2.3c0.618-0.55 1.481-0.82 2.59-0.82zm0 8.26c1.227 0 2.189 0.33 2.883 0.98 0.702 0.65 1.052 1.55 1.052 2.69 0 1.13-0.35 2.03-1.052 2.69-0.703 0.65-1.665 0.98-2.883 0.98-1.219 0-2.179-0.33-2.881-0.98-0.694-0.65-1.041-1.55-1.041-2.69s0.347-2.04 1.041-2.69c0.702-0.65 1.662-0.98 2.881-0.98z" style="baseline-shift:super" transform="translate(0,252.36)"/>
  </g>
  <g transform="translate(16.522 -.0017104)" stroke="#04756f" stroke-linecap="square" stroke-width="2.2721" fill="#2e0927">
   <path d="m129.49 345.62h-76.65" inkscape:connector-curvature="0"/>
   <path d="m129.49 413.51h-76.65" inkscape:connector-curvature="0"/>
   <path d="m129.49 481.39h-76.65" inkscape:connector-curvature="0"/>
   <path d="m129.49 549.28h-76.65" inkscape:connector-curvature="0"/>
   <path d="m129.49 617.17h-76.65" inkscape:connector-curvature="0"/>
   <path d="m129.49 685.05h-76.65" inkscape:connector-curvature="0"/>
   <path d="m129.49 752.94h-76.65" inkscape:connector-curvature="0"/>
   <path d="m129.49 820.82h-76.65" inkscape:connector-curvature="0"/>
   <path d="m129.49 888.71h-76.65" inkscape:connector-curvature="0"/>
   <path d="m129.49 956.59h-76.65" inkscape:connector-curvature="0"/>
   <path d="m129.49 277.74h-76.65" inkscape:connector-curvature="0"/>
  </g>
 </g>
</svg>
